<svg height="454pt" viewBox="0 0 454 454.08341" width="454pt" xmlns="http://www.w3.org/2000/svg"><path d="m227.160156 454.082031c91.796875 0 174.558594-55.296875 209.6875-140.105469 35.128906-84.8125 15.710938-182.433593-49.199218-247.34375-88.609376-88.78125-232.433594-88.851562-321.128907-.15625-88.699219 88.695313-88.628906 232.519532.15625 321.128907 42.46875 42.703125 100.257813 66.640625 160.484375 66.476562zm-156.691406-218.960937c1.816406 36.042968 16.054688 70.347656 40.289062 97.085937l-38.242187 38.242188c-34.34375-36.914063-54.273437-84.945313-56.148437-135.328125zm51.605469 108.402344c26.738281 24.234374 61.042969 38.46875 97.085937 40.289062v54.097656c-50.386718-1.878906-98.414062-21.808594-135.328125-56.152344zm113.085937 40.289062c36.273438-1.832031 70.777344-16.234375 97.582032-40.738281l38.238281 38.234375c-36.976563 34.617187-85.207031 54.71875-135.820313 56.605468zm108.84375-52.105469c23.972656-26.667969 38.042969-60.773437 39.847656-96.585937h54.101563c-1.867187 50.15625-21.628906 97.988281-55.699219 134.839844zm39.847656-112.585937c-1.816406-36.042969-16.054687-70.347656-40.292968-97.085938l38.246094-38.246094c34.347656 36.914063 54.277343 84.945313 56.15625 135.332032zm-51.605468-108.398438c-26.738282-24.238281-61.042969-38.476562-97.085938-40.296875v-54.105469c50.386719 1.878907 98.417969 21.808594 135.332032 56.152344zm-113.085938-40.296875c-35.816406 1.808594-69.917968 15.878907-96.585937 39.851563l-38.253907-38.253906c36.851563-34.074219 84.683594-53.832032 134.839844-55.703126zm8 15.800781c77.691406-.003906 140.898438 63.203126 140.898438 140.894532s-63.207032 140.894531-140.898438 140.894531-140.902344-63.199219-140.902344-140.894531c0-77.695313 63.214844-140.898438 140.902344-140.898438zm-154.1875-2.925781 38.234375 38.238281c-24.503906 26.804688-38.910156 61.308594-40.738281 97.582032h-54.097656c1.882812-50.613282 21.984375-98.84375 56.601562-135.820313zm0 0"/><path d="m141.894531 251.347656c5.269531 28.667969 24.515625 47.195313 49.03125 47.195313 5.0625-.035157 10.089844-.808594 14.929688-2.300781l-5.519531 19.40625c-.6875 2.460937-.203126 5.097656 1.308593 7.152343 1.496094 2.039063 3.855469 3.265625 6.382813 3.320313h38.257812c2.527344-.0625 4.882813-1.289063 6.386719-3.320313s1.988281-4.644531 1.3125-7.078125l-5.398437-19.011718c4.863281 1.5 9.921874 2.269531 15.011718 2.285156 24.664063 0 43.839844-18.734375 48.84375-47.699219 7.023438-40.183594-15.023437-93.425781-80.113281-121.773437-.148437-.066407-.300781-.128907-.449219-.183594-3.023437-1.222656-6.40625-1.222656-9.429687 0-.171875.0625-.339844.128906-.507813.199218-65.058594 28.933594-87.085937 82-80.050781 121.761719zm93.796875 58.773438h-17.070312l6.5-22.988282c.65625-.429687 1.3125-.941406 1.964844-1.398437.71875.519531 1.441406 1.128906 2.160156 1.617187zm-8.515625-165.398438c56.164063 24.988282 75.398438 70.03125 69.5 103.816406-3.667969 21.238282-16.34375 34.433594-33.082031 34.433594-9.699219 0-20.546875-4.683594-31.363281-13.539062-2.917969-2.386719-7.105469-2.414063-10.054688-.066406-10.816406 8.617187-21.621093 13.171874-31.25 13.171874-16.664062 0-29.417969-13.050781-33.289062-34.058593-8.152344-46.175781 28.851562-85.203125 69.539062-103.757813zm0 0"/></svg>