<svg height="454pt" viewBox="0 0 454 454.08342" width="454pt" xmlns="http://www.w3.org/2000/svg" xmlns:xlink="http://www.w3.org/1999/xlink"><linearGradient id="a"><stop offset="0" stop-color="#00efd1"/><stop offset="1" stop-color="#00acea"/></linearGradient><linearGradient id="b" gradientUnits="userSpaceOnUse" x1="227.004557" x2="227.004557" xlink:href="#a" y1="-7.034157" y2="468.044843"/><linearGradient id="c" gradientUnits="userSpaceOnUse" x1="227.003557" x2="227.003557" xlink:href="#a" y1="-7.034157" y2="468.044843"/><path d="m227.003906 0c-91.800781 0-174.558594 55.300781-209.6875 140.109375s-15.710937 182.429687 49.199219 247.339844c88.609375 88.785156 232.4375 88.855469 321.132813.160156 88.695312-88.699219 88.625-232.523437-.15625-321.132813-42.472657-42.703124-100.261719-66.640624-160.488282-66.476562zm105.085938 110.566406c-26.738282-24.238281-61.042969-38.476562-97.085938-40.292968v-54.109376c50.386719 1.878907 98.417969 21.808594 135.332032 56.15625zm-113.085938-40.292968c-35.816406 1.804687-69.917968 15.875-96.585937 39.847656l-38.253907-38.253906c36.851563-34.074219 84.683594-53.832032 134.839844-55.703126zm8 15.796874c77.691406-.003906 140.898438 63.203126 140.898438 140.894532s-63.207032 140.894531-140.898438 140.894531-140.902344-63.199219-140.902344-140.894531c0-77.695313 63.214844-140.898438 140.902344-140.898438zm-105.085937 257.296876c26.738281 24.234374 61.042969 38.472656 97.085937 40.289062v54.097656c-50.386718-1.875-98.417968-21.804687-135.328125-56.152344zm113.085937 40.289062c36.273438-1.828125 70.777344-16.234375 97.582032-40.738281l38.238281 38.234375c-36.976563 34.617187-85.207031 54.71875-135.820313 56.609375zm108.84375-52.105469c23.972656-26.667969 38.039063-60.773437 39.847656-96.585937h54.101563c-1.871094 50.15625-21.628906 97.988281-55.699219 134.839844zm39.847656-112.585937c-1.816406-36.042969-16.054687-70.347656-40.292968-97.085938l38.246094-38.246094c34.34375 36.914063 54.277343 84.945313 56.152343 135.332032zm-310.878906-135.820313 38.234375 38.238281c-24.503906 26.804688-38.910156 61.308594-40.738281 97.582032h-54.101562c1.886718-50.613282 21.988281-98.84375 56.605468-135.820313zm-56.609375 151.820313h54.101563c1.820312 36.042968 16.054687 70.347656 40.292968 97.085937l-38.242187 38.242188c-34.34375-36.914063-54.273437-84.941407-56.152344-135.328125zm0 0" fill="url(#b)"/><path d="m141.738281 251.191406c5.269531 28.671875 24.515625 47.195313 49.027344 47.195313 5.0625-.035157 10.09375-.808594 14.933594-2.300781l-5.523438 19.40625c-.683593 2.460937-.203125 5.097656 1.3125 7.15625 1.496094 2.035156 3.855469 3.261718 6.382813 3.316406h38.257812c2.527344-.0625 4.882813-1.289063 6.386719-3.320313s1.988281-4.644531 1.3125-7.078125l-5.398437-19.007812c4.863281 1.496094 9.921874 2.265625 15.011718 2.28125 24.664063 0 43.839844-18.734375 48.84375-47.699219 7.023438-40.183594-15.023437-93.425781-80.113281-121.773437-.148437-.066407-.300781-.128907-.449219-.183594-3.023437-1.222656-6.40625-1.222656-9.429687 0-.171875.0625-.339844.132812-.507813.203125-65.058594 28.929687-87.085937 82-80.050781 121.757812zm93.796875 58.773438h-17.070312l6.5-22.984375c.65625-.433594 1.3125-.945313 1.964844-1.402344.71875.519531 1.441406 1.128906 2.160156 1.617187zm-8.515625-165.398438c56.160157 24.992188 75.398438 70.035156 69.5 103.816406-3.671875 21.238282-16.347656 34.433594-33.082031 34.433594-9.699219 0-20.550781-4.679687-31.363281-13.539062-2.917969-2.386719-7.105469-2.414063-10.054688-.066406-10.816406 8.617187-21.621093 13.171874-31.25 13.171874-16.664062 0-29.417969-13.050781-33.289062-34.058593-8.152344-46.175781 28.851562-85.203125 69.539062-103.757813zm0 0" fill="url(#c)"/></svg>