<svg height="421.594pt" viewBox="0 0 421.594 421.594" width="421.594pt" xmlns="http://www.w3.org/2000/svg"><path d="m67.464844 365.441406c36.914062 34.34375 84.945312 54.273438 135.328125 56.152344v-54.101562c-36.042969-1.816407-70.34375-16.054688-97.082031-40.292969zm0 0"/><path d="m94.84375 105.214844-38.238281-38.234375c-34.617188 36.972656-54.71875 85.203125-56.605469 135.820312h54.101562c1.828126-36.273437 16.234376-70.777343 40.742188-97.585937zm0 0"/><path d="m0 218.800781c1.878906 50.382813 21.808594 98.414063 56.152344 135.328125l38.242187-38.246094c-24.238281-26.738281-38.472656-61.039062-40.289062-97.082031zm0 0"/><path d="m365.441406 67.46875-38.246094 38.242188c24.238282 26.738281 38.476563 61.042968 40.292969 97.089843h54.101563c-1.878906-50.386719-21.804688-98.417969-56.148438-135.332031zm0 0"/><path d="m354.125 56.15625c-36.914062-34.347656-84.945312-54.277344-135.332031-56.15625v54.101562c36.046875 1.816407 70.351562 16.058594 97.089843 40.296876zm0 0"/><path d="m202.792969 54.105469v-54.105469c-50.15625 1.871094-97.984375 21.628906-134.839844 55.699219l38.257813 38.257812c26.667968-23.972656 60.769531-38.042969 96.582031-39.851562zm0 0"/><path d="m141.273438 232.160156c3.867187 21.011719 16.621093 34.0625 33.285156 34.0625 9.628906 0 20.433594-4.558594 31.253906-13.171875 2.945312-2.351562 7.136719-2.324219 10.050781.066407 10.816407 8.855468 21.660157 13.535156 31.367188 13.535156 16.734375 0 29.410156-13.191406 33.078125-34.433594 5.90625-33.78125-13.335938-78.824219-69.5-103.816406-40.683594 18.550781-77.6875 57.582031-69.535156 103.757812zm0 0"/><path d="m367.488281 218.800781c-1.808593 35.8125-15.878906 69.914063-39.847656 96.585938l38.253906 38.253906c34.070313-36.855469 53.832031-84.683594 55.699219-134.839844zm0 0"/><path d="m210.722656 269.414062c-.65625.457032-1.3125.96875-1.964844 1.398438l-6.5 22.988281h17.070313l-6.449219-22.769531c-.71875-.492188-1.4375-1.097656-2.15625-1.617188zm0 0"/><path d="m218.792969 421.59375c50.617187-1.886719 98.847656-21.988281 135.820312-56.605469l-38.234375-38.238281c-26.808594 24.507812-61.3125 38.910156-97.585937 40.738281zm0 0"/><path d="m69.902344 210.800781c0 77.6875 63.203125 140.894531 140.898437 140.894531 77.695313 0 140.894531-63.207031 140.894531-140.894531s-63.210937-140.902343-140.902343-140.902343c-77.691407 0-140.890625 63.210937-140.890625 140.902343zm146.058594-97.601562c65.089843 28.347656 87.136718 81.589843 80.113281 121.773437-5 28.96875-24.179688 47.703125-48.84375 47.703125-5.089844-.019531-10.148438-.789062-15.011719-2.285156l5.398438 19.007813c.675781 2.4375.191406 5.046874-1.3125 7.078124-1.503907 2.03125-3.859376 3.257813-6.386719 3.324219h-38.253907c-2.527343-.058593-4.886718-1.285156-6.382812-3.324219-1.515625-2.054687-2-4.695312-1.3125-7.152343l5.519531-19.40625c-4.835937 1.488281-9.867187 2.265625-14.929687 2.300781-24.515625 0-43.757813-18.527344-49.027344-47.195312l-.011719-.054688c-7.03125-39.757812 15-92.828125 80.054688-121.757812.167969-.074219.335937-.144532.507812-.203126 3.023438-1.222656 6.402344-1.222656 9.429688 0 .148437.058594.300781.121094.449219.183594zm0 0"/></svg>